<svg viewBox="0 0 400 400" xmlns="http://www.w3.org/2000/svg">
  <!-- Pão superior -->
  <ellipse cx="200" cy="80" rx="100" ry="35" fill="#D2691E"/>
  <!-- Sementes -->
  <circle cx="140" cy="70" r="4" fill="#8B4513"/>
  <circle cx="200" cy="65" r="4" fill="#8B4513"/>
  <circle cx="260" cy="70" r="4" fill="#8B4513"/>
  <!-- Salsicha -->
  <rect x="120" y="115" width="160" height="25" fill="#8B4513" rx="12"/>
  <!-- Purê -->
  <ellipse cx="200" cy="155" rx="95" ry="18" fill="#F5DEB3"/>
  <!-- Milho -->
  <circle cx="160" cy="155" r="6" fill="#FFD700"/>
  <circle cx="185" cy="148" r="6" fill="#FFD700"/>
  <circle cx="215" cy="148" r="6" fill="#FFD700"/>
  <circle cx="240" cy="155" r="6" fill="#FFD700"/>
  <!-- Ervilha -->
  <circle cx="170" cy="165" r="5" fill="#228B22"/>
  <circle cx="200" cy="170" r="5" fill="#228B22"/>
  <circle cx="230" cy="165" r="5" fill="#228B22"/>
  <!-- Batata palha (visual representation) -->
  <line x1="120" y1="190" x2="135" y2="200" stroke="#DAA520" stroke-width="3"/>
  <line x1="150" y1="185" x2="165" y2="200" stroke="#DAA520" stroke-width="3"/>
  <line x1="235" y1="200" x2="250" y2="185" stroke="#DAA520" stroke-width="3"/>
  <line x1="270" y1="195" x2="280" y2="210" stroke="#DAA520" stroke-width="3"/>
  <!-- Molho (ketchup/mostarda) -->
  <path d="M 130 130 L 140 145 L 150 135" fill="#DC143C" opacity="0.7"/>
  <path d="M 250 130 L 240 145 L 230 135" fill="#FFD700" opacity="0.7"/>
  <!-- Pão inferior -->
  <ellipse cx="200" cy="340" rx="100" ry="35" fill="#D2691E"/>
  <!-- Sombreamento pão inferior -->
  <ellipse cx="200" cy="340" rx="95" ry="30" fill="none" stroke="#A0522D" stroke-width="2"/>
  <text x="200" y="385" text-anchor="middle" font-size="14" font-family="Arial" fill="#333">Hot Dog</text>
</svg>