<svg viewBox="0 0 400 400" xmlns="http://www.w3.org/2000/svg">
  <!-- Bun superior -->
  <ellipse cx="200" cy="80" rx="120" ry="50" fill="#D2691E"/>
  <rect x="80" y="80" width="240" height="40" fill="#D2691E"/>
  <!-- Sementes -->
  <circle cx="140" cy="60" r="5" fill="#8B4513"/>
  <circle cx="200" cy="50" r="6" fill="#8B4513"/>
  <circle cx="260" cy="60" r="5" fill="#8B4513"/>
  <!-- Bacon -->
  <path d="M 100 130 Q 110 150 120 130" fill="#8B0000" stroke="#6B0000" stroke-width="2"/>
  <path d="M 140 140 Q 150 165 160 140" fill="#8B0000" stroke="#6B0000" stroke-width="2"/>
  <path d="M 180 135 Q 190 160 200 135" fill="#8B0000" stroke="#6B0000" stroke-width="2"/>
  <path d="M 220 140 Q 230 165 240 140" fill="#8B0000" stroke="#6B0000" stroke-width="2"/>
  <path d="M 260 130 Q 270 150 280 130" fill="#8B0000" stroke="#6B0000" stroke-width="2"/>
  <!-- Alface -->
  <ellipse cx="200" cy="175" rx="110" ry="18" fill="#228B22"/>
  <!-- Tomate -->
  <rect x="100" y="205" width="200" height="18" fill="#DC143C" rx="4"/>
  <!-- Queijo -->
  <rect x="100" y="233" width="200" height="16" fill="#FFD700" rx="3"/>
  <!-- Hambúrguer -->
  <rect x="95" cy="260" width="210" height="32" fill="#8B4513" rx="5"/>
  <!-- Bun inferior -->
  <ellipse cx="200" cy="345" rx="120" ry="50" fill="#D2691E"/>
  <rect x="80" y="305" width="240" height="40" fill="#D2691E"/>
  <text x="200" y="375" text-anchor="middle" font-size="16" font-family="Arial" fill="#333">X-Bacon</text>
</svg>