<svg viewBox="0 0 400 400" xmlns="http://www.w3.org/2000/svg">
  <!-- Bun superior -->
  <ellipse cx="200" cy="60" rx="115" ry="45" fill="#D2691E"/>
  <rect x="85" y="60" width="230" height="35" fill="#D2691E"/>
  <!-- Sementes -->
  <circle cx="130" cy="45" r="5" fill="#8B4513"/>
  <circle cx="185" cy="38" r="5" fill="#8B4513"/>
  <circle cx="240" cy="45" r="5" fill="#8B4513"/>
  <!-- Bacon -->
  <path d="M 110 105 Q 120 120 130 105" fill="#8B0000"/>
  <path d="M 160 110 Q 170 125 180 110" fill="#8B0000"/>
  <path d="M 220 110 Q 230 125 240 110" fill="#8B0000"/>
  <!-- Ovo -->
  <ellipse cx="200" cy="145" rx="45" ry="25" fill="#FFFACD"/>
  <circle cx="200" cy="145" r="10" fill="#FFD700"/>
  <!-- Presunto -->
  <rect x="110" y="180" width="180" height="15" fill="#FFB6C1" rx="3"/>
  <!-- Alface -->
  <ellipse cx="200" cy="210" rx="105" ry="16" fill="#228B22"/>
  <!-- Tomate -->
  <rect x="110" y="235" width="180" height="16" fill="#DC143C" rx="3"/>
  <!-- Queijo -->
  <rect x="110" y="260" width="180" height="14" fill="#FFD700" rx="2"/>
  <!-- Hambúrguer -->
  <rect x="100" y="283" width="200" height="30" fill="#8B4513" rx="4"/>
  <!-- Bun inferior -->
  <ellipse cx="200" cy="350" rx="115" ry="45" fill="#D2691E"/>
  <rect x="85" y="310" width="230" height="35" fill="#D2691E"/>
  <text x="200" y="385" text-anchor="middle" font-size="14" font-family="Arial" fill="#333">X-Tudo</text>
</svg>